<svg version="1.1" viewBox="0.0 0.0 390.16272965879267 100.0" fill="none" stroke="none" stroke-linecap="square" stroke-miterlimit="10" xmlns:xlink="http://www.w3.org/1999/xlink" xmlns="http://www.w3.org/2000/svg"><clipPath id="p.0"><path d="m0 0l390.16272 0l0 100.0l-390.16272 0l0 -100.0z" clip-rule="nonzero"/></clipPath><g clip-path="url(#p.0)"><path fill="#000000" fill-opacity="0.0" d="m0 0l390.16272 0l0 100.0l-390.16272 0z" fill-rule="evenodd"/><path fill="#000000" fill-opacity="0.0" d="m0 0l477.16534 0l0 75.937004l-477.16534 0z" fill-rule="evenodd"/><path fill="#ffffff" d="m34.15625 40.128124q0 6.796875 -2.90625 10.46875q-2.890625 3.65625 -8.21875 3.65625q-5.125 0 -8.09375 -3.5625q-2.96875 -3.5625 -3.09375 -10.078125l0 -6.25q0 -6.640625 2.9375 -10.40625q2.9375 -3.78125 8.203125 -3.78125q5.25 0 8.171875 3.609375q2.921875 3.609375 3.0 10.3125l0 6.03125zm-4.171875 -5.8125q0 -5.25 -1.71875 -7.8125q-1.71875 -2.5625 -5.28125 -2.5625q-3.4375 0 -5.203125 2.59375q-1.765625 2.59375 -1.78125 7.65625l0 5.9375q0 5.078125 1.765625 7.75q1.765625 2.671875 5.265625 2.671875q3.515625 0 5.1875 -2.453125q1.6875 -2.46875 1.765625 -7.5625l0 -6.21875zm32.271088 19.484375l-4.1875 0l-13.28125 -25.5625l0 25.5625l-4.1875 0l0 -33.171875l4.1875 0l13.328125 25.671875l0 -25.671875l4.140625 0l0 33.171875zm23.13678 -15.328125l-11.734375 0l0 11.75l13.671875 0l0 3.578125l-17.84375 0l0 -33.171875l17.609375 0l0 3.609375l-13.4375 0l0 10.65625l11.734375 0l0 3.578125zm16.574905 -5.125l6.25 -12.71875l4.890625 0l-8.625 16.453125l8.8125 16.71875l-4.953125 0l-6.375 -12.9375l-6.390625 12.9375l-4.953125 0l8.859375 -16.71875l-8.671875 -16.453125l4.875 0l6.28125 12.71875zm45.548523 -9.109375l-8.734375 0l0 29.5625l-4.171875 0l0 -29.5625l-8.703125 0l0 -3.609375l21.609375 0l0 3.609375zm20.800568 14.234375l-11.734375 0l0 11.75l13.671875 0l0 3.578125l-17.84375 0l0 -33.171875l17.609375 0l0 3.609375l-13.4375 0l0 10.65625l11.734375 0l0 3.578125zm28.05928 4.796875q-0.265625 5.34375 -3.0 8.171875q-2.71875 2.8125 -7.6875 2.8125q-4.984375 0 -7.921875 -3.78125q-2.9375 -3.796875 -2.9375 -10.296875l0 -6.015625q0 -6.46875 3.015625 -10.21875q3.015625 -3.765625 8.234375 -3.765625q4.8125 0 7.4375 2.890625q2.625 2.875 2.859375 8.21875l-4.21875 0q-0.265625 -4.046875 -1.703125 -5.78125q-1.4375 -1.734375 -4.375 -1.734375q-3.390625 0 -5.21875 2.65625q-1.8125 2.65625 -1.8125 7.78125l0 6.078125q0 5.046875 1.6875 7.734375q1.703125 2.6875 4.953125 2.6875q3.265625 0 4.6875 -1.609375q1.4375 -1.625 1.78125 -5.828125l4.21875 0zm27.355423 10.53125l-4.1875 0l0 -15.328125l-13.34375 0l0 15.328125l-4.171875 0l0 -33.171875l4.171875 0l0 14.265625l13.34375 0l0 -14.265625l4.1875 0l0 33.171875zm28.885468 0l-4.1875 0l-13.28125 -25.5625l0 25.5625l-4.1875 0l0 -33.171875l4.1875 0l13.328125 25.671875l0 -25.671875l4.140625 0l0 33.171875zm28.80864 -13.671875q0 6.796875 -2.90625 10.46875q-2.890625 3.65625 -8.21875 3.65625q-5.125 0 -8.09375 -3.5625q-2.96875 -3.5625 -3.09375 -10.078125l0 -6.25q0 -6.640625 2.9375 -10.40625q2.9375 -3.78125 8.203125 -3.78125q5.25 0 8.171875 3.609375q2.921875 3.609375 3.0 10.3125l0 6.03125zm-4.171875 -5.8125q0 -5.25 -1.71875 -7.8125q-1.71875 -2.5625 -5.28125 -2.5625q-3.4375 0 -5.203125 2.59375q-1.765625 2.59375 -1.78125 7.65625l0 5.9375q0 5.078125 1.765625 7.75q1.765625 2.671875 5.265625 2.671875q3.515625 0 5.1875 -2.453125q1.6875 -2.46875 1.765625 -7.5625l0 -6.21875zm14.802368 15.90625l13.015625 0l0 3.578125l-17.203125 0l0 -33.171875l4.1875 0l0 29.59375zm38.075775 -10.09375q0 6.796875 -2.90625 10.46875q-2.890625 3.65625 -8.21875 3.65625q-5.125 0 -8.09375 -3.5625q-2.96875 -3.5625 -3.09375 -10.078125l0 -6.25q0 -6.640625 2.9375 -10.40625q2.9375 -3.78125 8.203125 -3.78125q5.25 0 8.171875 3.609375q2.921875 3.609375 3.0 10.3125l0 6.03125zm-4.171875 -5.8125q0 -5.25 -1.71875 -7.8125q-1.71875 -2.5625 -5.28125 -2.5625q-3.4375 0 -5.203125 2.59375q-1.765625 2.59375 -1.78125 7.65625l0 5.9375q0 5.078125 1.765625 7.75q1.765625 2.671875 5.265625 2.671875q3.515625 0 5.1875 -2.453125q1.6875 -2.46875 1.765625 -7.5625l0 -6.21875zm31.364838 15.359375l-0.734375 0.90625q-3.140625 3.671875 -9.203125 3.671875q-5.375 0 -8.4375 -3.5625q-3.0625 -3.5625 -3.125 -10.078125l0 -6.515625q0 -6.96875 2.78125 -10.4375q2.796875 -3.484375 8.359375 -3.484375q4.734375 0 7.40625 2.640625q2.6875 2.640625 2.953125 7.546875l-4.171875 0q-0.25 -3.109375 -1.71875 -4.84375q-1.46875 -1.75 -4.453125 -1.75q-3.578125 0 -5.25 2.34375q-1.65625 2.328125 -1.71875 7.453125l0 6.765625q0 5.015625 1.90625 7.703125q1.921875 2.671875 5.5 2.671875q3.375 0 5.125 -1.640625l0.609375 -0.578125l0 -7.65625l-6.046875 0l0 -3.546875l10.21875 0l0 12.390625zm15.44046 -12.390625l6.796875 -16.65625l4.71875 0l-9.4375 20.796875l0 12.375l-4.171875 0l0 -12.375l-9.421875 -20.796875l4.734375 0l6.78125 16.65625z" fill-rule="nonzero"/></g></svg>